<svg width="24" height="24" viewBox="0 0 24 24" fill="none" xmlns="http://www.w3.org/2000/svg">
<rect width="24" height="24" rx="4" fill="#F3BA2F"/>
<path d="M8.97178 10.7549L12.0017 7.72631L15.0328 10.7574L16.7948 8.99417L12.0017 4.19995L7.20855 8.99294L8.97178 10.7549Z" fill="white"/>
<path d="M4.2002 12.0002L5.96279 10.2377L7.72537 12.0002L5.96278 13.7628L4.2002 12.0002Z" fill="white"/>
<path d="M8.97179 13.245L12.0017 16.2748L15.0328 13.2438L16.7961 15.0045L12.0017 19.8L7.20609 15.0057L8.97179 13.245Z" fill="white"/>
<path d="M16.275 12.0007L18.0376 10.2381L19.8002 12.0007L18.0376 13.7632L16.275 12.0007Z" fill="white"/>
<path d="M13.7896 11.9993L12.0017 10.2103L10.6796 11.5324L10.5268 11.6839L10.2113 11.9993L10.2138 12.003L12.0017 13.7896L13.7908 11.9993H13.7896Z" fill="white"/>
</svg>
