<svg xmlns="http://www.w3.org/2000/svg" width="24" height="24" fill="none" viewBox="0 0 24 24">
    <path fill="#F7931A" d="M23.64 14.904c-1.601 6.428-8.114 10.34-14.544 8.736C2.666 22.036-1.244 15.527.36 9.098 1.964 2.67 8.473-1.245 14.902.36c6.429 1.604 10.343 8.114 8.738 14.544z"/>
    <rect width="24" height="24" fill="#F7931A" rx="4"/>
    <path fill="#fff" d="M17.293 10.29c.238-1.597-.978-2.456-2.64-3.028l.54-2.164-1.317-.328-.527 2.107a51.922 51.922 0 0 0-1.054-.249l.528-2.12-1.316-.328-.538 2.162-2.656-.657-.35 1.406s.976.224.956.238c.533.133.63.486.613.766L8.055 14.02c-.066.162-.231.404-.604.312.013.019-.957-.24-.957-.24l-.654 1.51 2.652.669-.545 2.188 1.316.328.54-2.165c.36.098.708.188 1.049.272l-.538 2.155 1.317.328.545-2.184c2.245.425 3.934.254 4.644-1.776.572-1.635-.028-2.578-1.21-3.193.86-.2 1.509-.765 1.682-1.935zm-3.01 4.219c-.408 1.635-3.16.751-4.053.53l.723-2.9c.892.223 3.755.664 3.33 2.37zm.409-4.243c-.372 1.488-2.664.732-3.407.547l.655-2.63c.744.186 3.138.532 2.75 2.083"/>
</svg>
