<svg xmlns="http://www.w3.org/2000/svg" width="24" height="24" fill="none" viewBox="0 0 24 24">
    <rect width="24" height="24" fill="#C2A633" rx="4"/>
    <circle cx="12" cy="12" r="12" fill="#fff"/>
    <path fill="#C2A633" d="M12.267 7.904h-1.711v3.379h2.693v1.415h-2.693v3.378h1.795c.461 0 3.788.052 3.783-3.93-.006-3.984-3.226-4.242-3.867-4.242z"/>
    <path fill="#C2A633" d="M12 0C5.373 0 0 5.373 0 12c0 6.628 5.373 12 12 12 6.628 0 12-5.372 12-12 0-6.627-5.372-12-12-12zm.472 18.481H8.126v-5.777H6.594v-1.416h1.532V5.511h3.73c.882 0 6.726-.184 6.726 6.593 0 6.89-6.11 6.377-6.11 6.377z"/>
</svg>
