<svg width="32" height="32" viewBox="0 0 32 32" fill="none" xmlns="http://www.w3.org/2000/svg">
<rect width="32" height="32" rx="6" fill="#345D9D"/>
<path d="M16.2712 16.5424L14.6053 22.1598H23.5157C23.5748 22.1577 23.6336 22.1673 23.6889 22.188C23.7443 22.2087 23.795 22.2401 23.8381 22.2804C23.8813 22.3207 23.9161 22.3691 23.9406 22.4229C23.965 22.4766 23.9786 22.5347 23.9806 22.5937V22.7409L23.2058 25.4141C23.1717 25.5405 23.0955 25.6515 22.9899 25.7289C22.8843 25.8064 22.7555 25.8456 22.6247 25.8402H8.9879L11.2736 18.0533L8.71671 18.8281L9.29783 17.046L11.8547 16.2712L15.0702 5.34626C15.1056 5.22055 15.1821 5.11031 15.2874 5.03308C15.3927 4.95585 15.5208 4.91608 15.6513 4.92011H19.0993C19.1583 4.91804 19.2172 4.92762 19.2725 4.94831C19.3278 4.969 19.3785 5.0004 19.4217 5.04069C19.4648 5.08099 19.4996 5.12941 19.5241 5.18317C19.5486 5.23693 19.5622 5.29498 19.5642 5.35401V5.50122L16.8523 14.7216L19.4092 13.9467L18.8668 15.8063L16.2712 16.5424Z" fill="white"/>
</svg>
