<svg width="24" height="24" viewBox="0 0 24 24" fill="none" xmlns="http://www.w3.org/2000/svg">
<circle cx="12" cy="12" r="12" fill="#8247E5"/>
<rect width="24" height="24" rx="4" fill="#8247E5"/>
<path d="M16.0122 9.2954C15.7271 9.13247 15.3605 9.13247 15.0347 9.2954L12.7537 10.6395L11.2059 11.4949L8.96573 12.839C8.68061 13.0019 8.31403 13.0019 7.98819 12.839L6.23675 11.78C5.95163 11.6171 5.74798 11.2912 5.74798 10.9246V8.88809C5.74798 8.56224 5.9109 8.23639 6.23675 8.03273L7.98819 7.01446C8.2733 6.85153 8.63988 6.85153 8.96573 7.01446L10.7172 8.07347C11.0023 8.23639 11.2059 8.56224 11.2059 8.92882V10.2729L12.7537 9.37686V7.992C12.7537 7.66615 12.5908 7.34031 12.2649 7.13665L9.00646 5.22229C8.72134 5.05937 8.35476 5.05937 8.02892 5.22229L4.68897 7.17738C4.36312 7.34031 4.2002 7.66615 4.2002 7.992V11.8207C4.2002 12.1466 4.36312 12.4724 4.68897 12.6761L7.98819 14.5904C8.2733 14.7534 8.63988 14.7534 8.96573 14.5904L11.2059 13.287L12.7537 12.391L14.9939 11.0876C15.279 10.9246 15.6456 10.9246 15.9715 11.0876L17.7229 12.1058C18.008 12.2688 18.2117 12.5946 18.2117 12.9612V14.9977C18.2117 15.3236 18.0488 15.6494 17.7229 15.8531L16.0122 16.8714C15.7271 17.0343 15.3605 17.0343 15.0347 16.8714L13.2832 15.8531C12.9981 15.6902 12.7945 15.3643 12.7945 14.9977V13.6944L11.2467 14.5904V15.9346C11.2467 16.2604 11.4096 16.5863 11.7354 16.7899L15.0347 18.7043C15.3198 18.8672 15.6864 18.8672 16.0122 18.7043L19.3114 16.7899C19.5965 16.627 19.8002 16.3011 19.8002 15.9346V12.0651C19.8002 11.7393 19.6373 11.4134 19.3114 11.2098L16.0122 9.2954Z" fill="white"/>
</svg>
