<svg xmlns="http://www.w3.org/2000/svg" width="32" height="32" fill="none" viewBox="0 0 32 32">
    <g opacity=".4">
        <path fill="#12121B" d="M23.852 28.136a.658.658 0 1 1 0-1.316.658.658 0 0 1 0 1.316z" opacity=".4"/>
        <path fill="#8984B1" fill-rule="evenodd" d="M23.473 27.477a.378.378 0 1 0 .757 0 .378.378 0 0 0-.757 0zm-.12 0a.498.498 0 1 0 .996 0 .498.498 0 0 0-.996 0z" clip-rule="evenodd" opacity=".4"/>
        <path fill="#12121B" d="M26.82 24.629a.658.658 0 1 0-1.315 0 .658.658 0 0 0 1.315 0z" opacity=".4"/>
        <path fill="#8984B1" fill-rule="evenodd" d="M26.163 24.25a.379.379 0 1 1 0 .757.379.379 0 0 1 0-.757zm0-.12a.498.498 0 1 1 0 .997.498.498 0 0 1 0-.996z" clip-rule="evenodd" opacity=".4"/>
        <path fill="#12121B" d="M26.82 19.168a.658.658 0 1 0-1.315 0 .658.658 0 0 0 1.315 0z" opacity=".4"/>
        <path fill="#8984B1" fill-rule="evenodd" d="M26.163 18.79a.379.379 0 1 1 0 .757.379.379 0 0 1 0-.757zm0-.12a.498.498 0 1 1 0 .996.498.498 0 0 1 0-.996z" clip-rule="evenodd" opacity=".4"/>
        <path fill="#12121B" d="M28.414 17.933a.658.658 0 1 0-1.315 0 .658.658 0 0 0 1.315 0z" opacity=".4"/>
        <path fill="#8984B1" fill-rule="evenodd" d="M27.758 17.555a.379.379 0 1 1 0 .758.379.379 0 0 1 0-.758zm0-.12a.498.498 0 1 1 0 .997.498.498 0 0 1 0-.996z" clip-rule="evenodd" opacity=".4"/>
        <path fill="#12121B" d="M29.65 14.446a.658.658 0 1 0-1.315 0 .658.658 0 0 0 1.315 0z" opacity=".4"/>
        <path fill="#8984B1" fill-rule="evenodd" d="M28.994 14.068a.379.379 0 1 1 0 .757.379.379 0 0 1 0-.757zm0-.12a.498.498 0 1 1 0 .997.498.498 0 0 1 0-.997z" clip-rule="evenodd" opacity=".4"/>
        <path fill="#12121B" d="M28.414 22.875a.658.658 0 1 0-1.315 0 .658.658 0 0 0 1.315 0z" opacity=".4"/>
        <path fill="#8984B1" fill-rule="evenodd" d="M27.758 22.496a.379.379 0 1 1 0 .758.379.379 0 0 1 0-.758zm0-.12a.498.498 0 1 1 0 .997.498.498 0 0 1 0-.996z" clip-rule="evenodd" opacity=".4"/>
        <path fill="#12121B" d="M27.22 21.918a.658.658 0 1 0-1.315 0 .658.658 0 0 0 1.315 0z" opacity=".4"/>
        <path fill="#8984B1" fill-rule="evenodd" d="M26.562 21.54a.379.379 0 1 1 0 .757.379.379 0 0 1 0-.757zm0-.12a.498.498 0 1 1 0 .996.498.498 0 0 1 0-.996z" clip-rule="evenodd" opacity=".4"/>
        <path fill="#12121B" d="M28.136 20.484a.657.657 0 1 0-1.315 0 .657.657 0 0 0 1.315 0z" opacity=".4"/>
        <path fill="#8984B1" fill-rule="evenodd" d="M27.478 20.105a.379.379 0 1 1 0 .757.379.379 0 0 1 0-.757zm0-.12a.498.498 0 1 1 0 .997.498.498 0 0 1 0-.997z" clip-rule="evenodd" opacity=".4"/>
        <path fill="#12121B" fill-rule="evenodd" d="M23.435 25.405h.956l.498-.498h.758v-.478h-.956l-.498.498h-.56l-1.095-1.096h-1.674v.478h1.475l1.096 1.096zm-.299-1.853h1.986l.478-.438h1.6v-.479h-1.786l-.478.439h-1.602l-1.315-1.315h-2.43v.478h2.232l1.315 1.315zm.3-1.355h2.609v-.478h-2.412l-1.095-1.096h-4.324v.478h4.125l1.096 1.096zm.756-1.474h2.75v-.479H24.39l-1.056-1.056h-1.513l-.498.498h-3.109v.479h3.307l.498-.498h1.117l1.056 1.055zm0-1.335h1.454v-.479H24.39l-1.056-1.056H19.59v.478h3.547l1.056 1.056zm.977-1.216h2.071v-.478h-1.873l-.338-.338v-.598l-1.137-1.136h-1.055l-.757.757h-1.216v.478h1.415l.757-.757h.658l.857.856v.598l.618.618z" clip-rule="evenodd" opacity=".4"/>
        <path fill="#8984B1" fill-rule="evenodd" d="M23.51 25.226h.806l.498-.498h.912v-.12h-.961l-.498.499h-.708l-1.096-1.096h-1.599v.12h1.55l1.096 1.095zm-.3-1.853h1.842l.478-.438h1.75v-.12h-1.796l-.479.438H23.26l-1.315-1.315H19.59v.12h2.307l1.315 1.315zm.3-1.355h2.615v-.12h-2.566l-1.096-1.095h-4.249v.12h4.2l1.096 1.095zm.757-1.474h2.754v-.12h-2.705l-1.056-1.056h-1.364l-.498.498h-3.184v.12h3.233l.498-.498h1.266l1.056 1.056zm0-1.335h1.42v-.12h-1.37l-1.057-1.056h-3.67v.12h3.62l1.057 1.056zm.976-1.216h2.037v-.12h-1.987l-.444-.443v-.597L23.82 15.8h-.907l-.757.758h-1.29v.12h1.34l.756-.758h.808l.96.961v.598l.514.513z" clip-rule="evenodd" opacity=".4"/>
        <path fill="#12121B" d="M25.586 5.958a.658.658 0 1 1-1.315 0 .658.658 0 0 1 1.315 0z" opacity=".4"/>
        <path fill="#8984B1" fill-rule="evenodd" d="M24.928 6.337a.378.378 0 1 0 0-.757.378.378 0 0 0 0 .757zm0 .12a.498.498 0 1 0 0-.996.498.498 0 0 0 0 .996z" clip-rule="evenodd" opacity=".4"/>
        <path fill="#12121B" d="M25.586 11.418a.658.658 0 1 1-1.315 0 .658.658 0 0 1 1.315 0z" opacity=".4"/>
        <path fill="#8984B1" fill-rule="evenodd" d="M24.928 11.796a.378.378 0 1 0 0-.756.378.378 0 0 0 0 .757zm0 .12a.498.498 0 1 0 0-.996.498.498 0 0 0 0 .996z" clip-rule="evenodd" opacity=".4"/>
        <path fill="#12121B" d="M27.18 12.652a.657.657 0 1 1-1.315 0 .657.657 0 0 1 1.315 0z" opacity=".4"/>
        <path fill="#8984B1" fill-rule="evenodd" d="M26.522 13.031a.379.379 0 1 0 0-.757.379.379 0 0 0 0 .758zm0 .12a.498.498 0 1 0 0-.996.498.498 0 0 0 0 .996z" clip-rule="evenodd" opacity=".4"/>
        <path fill="#12121B" d="M27.18 7.711a.658.658 0 1 1-1.315 0 .658.658 0 0 1 1.315 0z" opacity=".4"/>
        <path fill="#8984B1" fill-rule="evenodd" d="M26.522 8.09a.379.379 0 1 0 0-.757.379.379 0 0 0 0 .757zm0 .12a.498.498 0 1 0 0-.997.498.498 0 0 0 0 .996z" clip-rule="evenodd" opacity=".4"/>
        <path fill="#12121B" d="M25.984 8.668a.658.658 0 1 1-1.315 0 .658.658 0 0 1 1.315 0z" opacity=".4"/>
        <path fill="#8984B1" fill-rule="evenodd" d="M25.326 9.047a.379.379 0 1 0 0-.758.379.379 0 0 0 0 .758zm0 .12a.498.498 0 1 0 0-.997.498.498 0 0 0 0 .996z" clip-rule="evenodd" opacity=".4"/>
        <path fill="#12121B" d="M26.901 10.103a.658.658 0 1 1-1.315 0 .658.658 0 0 1 1.316 0z" opacity=".4"/>
        <path fill="#8984B1" fill-rule="evenodd" d="M26.244 10.481a.379.379 0 1 0 0-.757.379.379 0 0 0 0 .757zm0 .12a.498.498 0 1 0 0-.997.498.498 0 0 0 0 .997z" clip-rule="evenodd" opacity=".4"/>
        <path fill="#12121B" fill-rule="evenodd" d="M22.198 5.182h.955l.498.498h.758v.478h-.956l-.498-.498h-.559L21.3 6.756h-1.673v-.478h1.475l1.096-1.096zm-.299 1.853h1.985l.479.438h1.6v.479h-1.786l-.479-.439h-1.6l-1.316 1.315h-2.43V8.35h2.232l1.315-1.315zm.299 1.355h2.61v.478h-2.412L21.3 9.964h-4.323v-.478h4.125l1.096-1.096zm.757 1.474h2.75v.478h-2.552L22.097 11.4h-1.513l-.498-.499h-3.109v-.478h3.307l.498.498H21.9l1.056-1.056zm0 1.335h1.454v.479h-1.256l-1.056 1.056H19.15v-.479h2.75l1.056-1.056zm.977 1.216h2.071v.478H24.13l-.338.338v.598l-1.137 1.136H21.6l-.757-.757h-1.216v-.478h1.414l.757.757h.66l.855-.856v-.598l.619-.618z" clip-rule="evenodd" opacity=".4"/>
        <path fill="#8984B1" fill-rule="evenodd" d="M22.272 5.361h.807l.498.498h.912v.12h-.961l-.499-.498h-.707l-1.096 1.096h-1.599v-.12h1.55l1.095-1.096zm-.299 1.853h1.842l.478.438h1.75v.12h-1.797l-.478-.438h-1.745l-1.315 1.315h-2.356v-.12h2.306l1.315-1.315zm.3 1.355h2.614v.12h-2.565l-1.096 1.095h-4.249v-.12h4.2l1.095-1.095zm.756 1.474h2.755v.12h-2.705l-1.056 1.056h-1.365l-.498-.498h-3.183v-.12h3.233l.498.499h1.265l1.056-1.056zm0 1.336h1.42v.12h-1.37l-1.056 1.055h-2.874v-.12h2.824l1.056-1.055zm.977 1.215h2.037v.12h-1.988l-.443.443v.598l-1.031 1.03h-.907l-.757-.756h-1.29v-.12h1.34l.757.757h.807l.962-.961v-.598l.513-.513z" clip-rule="evenodd" opacity=".4"/>
        <path fill="#12121B" d="M11.568 3.428a.658.658 0 1 1 0 1.315.658.658 0 0 1 0-1.315z" opacity=".4"/>
        <path fill="#8984B1" fill-rule="evenodd" d="M11.946 4.086a.379.379 0 1 0-.757 0 .379.379 0 0 0 .757 0zm.12 0a.498.498 0 1 0-.997 0 .498.498 0 0 0 .997 0z" clip-rule="evenodd" opacity=".4"/>
        <path fill="#12121B" d="M8.708 3.746a.658.658 0 1 1 0 1.315.658.658 0 0 1 0-1.315z" opacity=".4"/>
        <path fill="#8984B1" fill-rule="evenodd" d="M9.088 4.404a.379.379 0 1 0-.757 0 .379.379 0 0 0 .757 0zm.12 0a.498.498 0 1 0-.997 0 .498.498 0 0 0 .997 0z" clip-rule="evenodd" opacity=".4"/>
        <path fill="#12121B" d="M7.554 5.221a.658.658 0 1 1 0 1.315.658.658 0 0 1 0-1.315z" opacity=".4"/>
        <path fill="#8984B1" fill-rule="evenodd" d="M7.932 5.88a.379.379 0 1 0-.757 0 .379.379 0 0 0 .757 0zm.12 0a.498.498 0 1 0-.997 0 .498.498 0 0 0 .996 0z" clip-rule="evenodd" opacity=".4"/>
        <path fill="#12121B" d="M10.9 28.335a.657.657 0 1 1 0 1.315.657.657 0 0 1 0-1.315z" opacity=".4"/>
        <path fill="#8984B1" fill-rule="evenodd" d="M11.28 28.992a.378.378 0 1 0-.757 0 .378.378 0 0 0 .757 0zm.12 0a.498.498 0 1 0-.997 0 .498.498 0 0 0 .997 0z" clip-rule="evenodd" opacity=".4"/>
        <path fill="#12121B" d="M20.466 2.073a.658.658 0 1 1 0 1.315.658.658 0 0 1 0-1.315z" opacity=".4"/>
        <path fill="#8984B1" fill-rule="evenodd" d="M20.844 2.73a.379.379 0 1 0-.757 0 .379.379 0 0 0 .757 0zm.12 0a.498.498 0 1 0-.997 0 .498.498 0 0 0 .997 0z" clip-rule="evenodd" opacity=".4"/>
        <path fill="#12121B" d="M17.028 3.428a.658.658 0 1 1 0 1.315.658.658 0 0 1 0-1.315z" opacity=".4"/>
        <path fill="#8984B1" fill-rule="evenodd" d="M17.406 4.086a.379.379 0 1 0-.757 0 .379.379 0 0 0 .757 0zm.12 0a.498.498 0 1 0-.996 0 .498.498 0 0 0 .996 0z" clip-rule="evenodd" opacity=".4"/>
        <path fill="#12121B" d="M18.263 1.834a.658.658 0 1 1 0 1.315.658.658 0 0 1 0-1.315z" opacity=".4"/>
        <path fill="#8984B1" fill-rule="evenodd" d="M18.64 2.491a.378.378 0 1 0-.756 0 .378.378 0 0 0 .757 0zm.12 0a.498.498 0 1 0-.996 0 .498.498 0 0 0 .996 0z" clip-rule="evenodd" opacity=".4"/>
        <path fill="#12121B" d="M13.32 1.834a.658.658 0 1 1 0 1.315.658.658 0 0 1 0-1.315z" opacity=".4"/>
        <path fill="#8984B1" fill-rule="evenodd" d="M13.7 2.491a.379.379 0 1 0-.757 0 .379.379 0 0 0 .757 0zm.12 0a.498.498 0 1 0-.996 0 .498.498 0 0 0 .996 0z" clip-rule="evenodd" opacity=".4"/>
        <path fill="#12121B" d="M14.278 3.03a.658.658 0 1 1 0 1.315.658.658 0 0 1 0-1.315z" opacity=".4"/>
        <path fill="#8984B1" fill-rule="evenodd" d="M14.656 3.686a.379.379 0 1 0-.757 0 .379.379 0 0 0 .758 0zm.12 0a.498.498 0 1 0-.996 0 .498.498 0 0 0 .996 0z" clip-rule="evenodd" opacity=".4"/>
        <path fill="#12121B" d="M15.713 2.113a.658.658 0 1 1 0 1.315.658.658 0 0 1 0-1.315z" opacity=".4"/>
        <path fill="#8984B1" fill-rule="evenodd" d="M16.091 2.77a.379.379 0 1 0-.757 0 .379.379 0 0 0 .757 0zm.12 0a.498.498 0 1 0-.997 0 .498.498 0 0 0 .997 0z" clip-rule="evenodd" opacity=".4"/>
        <path fill="#12121B" fill-rule="evenodd" d="M10.791 6.815V5.86l.498-.498v-.758h.478v.956l-.498.498v.56l1.096 1.095v1.673h-.478V7.911L10.79 6.815zm1.853.299V5.129l.438-.479v-1.6h.479v1.787l-.439.478v1.6l1.315 1.316v2.43h-.478V8.43l-1.315-1.315zM14 6.815v-2.61h.478v2.412l1.026 1.026-.338.338-1.166-1.166zm1.474-.757v-2.75h.479V5.86l1.056 1.056v1.513l-.569.568-.338-.338.429-.428V7.114l-1.057-1.056zm1.335 0V4.604h.479V5.86l1.056 1.056v2.948h-.479v-2.75l-1.056-1.056zm1.216-.976V3.01h.478v1.874l.338.338h.598l1.136 1.136v1.055l-.757.757v1.216h-.478V7.972l.757-.757v-.659L19.24 5.7h-.598l-.618-.618z" clip-rule="evenodd" opacity=".4"/>
        <path fill="#8984B1" fill-rule="evenodd" d="M10.97 6.741v-.807l.498-.498v-.911h.12v.96l-.499.499v.708l1.096 1.096v1.598h-.12V7.837L10.97 6.741zm1.853.299V5.199l.438-.478V2.97h.12v1.796l-.439.478v1.746l1.315 1.315v2.356h-.12V8.355L12.824 7.04zm1.355-.299V4.126h.12v2.566l1.078 1.078-.085.085-1.113-1.114zm1.474-.757V3.229h.12v2.705l1.056 1.057v1.364l-.516.516-.084-.085.48-.48V7.04l-1.056-1.056zm1.335 0v-1.42h.12v1.37l1.056 1.057v2.874h-.12V7.04l-1.056-1.056zm1.216-.976V2.97h.12v1.988l.442.443h.598l1.031 1.032v.906l-.757.757v1.29h-.12v-1.34l.758-.757v-.807l-.961-.961h-.598l-.513-.513z" clip-rule="evenodd" opacity=".4"/>
        <path fill="#12121B" fill-rule="evenodd" d="M21.026 2.885l.813.814v.812l-.877.877v.869h-.518V5.173l.877-.877v-.383l-.661-.661.366-.366zM9.876 4.663h-.65v-.518h.865l.63.63v1.482h-.518V4.989l-.327-.326zm-1.06 2.092l-.682-.681-.366.366.833.833h1.136l.466.466v.73h.518v-.945l-.77-.77H8.816zm1.945 18.251h.518v1.387l.956.957v.633l-.793.793-.366-.366.641-.642v-.204l-.956-.956v-1.602zm10.939.518h.518v.87l.366.366h.817l.195.195-.302.303v.02h-.02l-.044.044-.044-.044h-.817l-.67-.67v-1.084z" clip-rule="evenodd" opacity=".4"/>
        <path fill="#8984B1" fill-rule="evenodd" d="M20.847 2.987l.794.795v.647l-.876.877v.951h-.12v-1l.877-.878v-.548l-.76-.76.085-.084zM9.96 4.464h-.772v-.12h.822l.513.514v1.4h-.12v-1.35l-.443-.444zm-1.225 2.49l-.78-.779-.084.085.814.814h1.136l.582.583v.812h.12v-.862l-.653-.652H8.735zm2.226 18.053h.12v1.47l.956.956v.468l-.774.775-.085-.085.74-.74v-.368l-.957-.957v-1.519zm10.94.518h.119v.952l.483.483h.817l.217.216-.085.085-.182-.182h-.817l-.553-.553v-1.001z" clip-rule="evenodd" opacity=".4"/>
        <path fill="#12121B" d="M20.246 28.395a.658.658 0 1 1 0-1.315.658.658 0 0 1 0 1.315z" opacity=".4"/>
        <path fill="#8984B1" fill-rule="evenodd" d="M19.868 27.737a.379.379 0 1 0 .757 0 .379.379 0 0 0-.757 0zm-.12 0a.498.498 0 1 0 .996 0 .498.498 0 0 0-.996 0z" clip-rule="evenodd" opacity=".4"/>
        <path fill="#12121B" d="M14.785 28.395a.658.658 0 1 1 0-1.315.658.658 0 0 1 0 1.315z" opacity=".4"/>
        <path fill="#8984B1" fill-rule="evenodd" d="M14.407 27.737a.379.379 0 1 0 .757 0 .379.379 0 0 0-.757 0zm-.12 0a.498.498 0 1 0 .997 0 .498.498 0 0 0-.996 0z" clip-rule="evenodd" opacity=".4"/>
        <path fill="#12121B" d="M13.551 29.989a.657.657 0 1 1 0-1.315.657.657 0 0 1 0 1.315z" opacity=".4"/>
        <path fill="#8984B1" fill-rule="evenodd" d="M13.173 29.331a.379.379 0 1 0 .757 0 .379.379 0 0 0-.757 0zm-.12 0a.498.498 0 1 0 .996 0 .498.498 0 0 0-.996 0z" clip-rule="evenodd" opacity=".4"/>
        <path fill="#12121B" d="M18.493 29.989a.658.658 0 1 1 0-1.316.658.658 0 0 1 0 1.316z" opacity=".4"/>
        <path fill="#8984B1" fill-rule="evenodd" d="M18.113 29.331a.379.379 0 1 0 .757 0 .379.379 0 0 0-.757 0zm-.12 0a.498.498 0 1 0 .996 0 .498.498 0 0 0-.996 0z" clip-rule="evenodd" opacity=".4"/>
        <path fill="#12121B" d="M17.535 28.793a.658.658 0 1 1 0-1.315.658.658 0 0 1 0 1.315z" opacity=".4"/>
        <path fill="#8984B1" fill-rule="evenodd" d="M17.157 28.136a.379.379 0 1 0 .757 0 .379.379 0 0 0-.757 0zm-.12 0a.498.498 0 1 0 .997 0 .498.498 0 0 0-.996 0z" clip-rule="evenodd" opacity=".4"/>
        <path fill="#12121B" d="M16.1 29.71a.657.657 0 1 1 .001-1.316.657.657 0 0 1 0 1.315z" opacity=".4"/>
        <path fill="#8984B1" fill-rule="evenodd" d="M15.721 29.052a.379.379 0 1 0 .757 0 .379.379 0 0 0-.757 0zm-.12 0a.498.498 0 1 0 .997 0 .498.498 0 0 0-.996 0z" clip-rule="evenodd" opacity=".4"/>
        <path fill="#12121B" fill-rule="evenodd" d="M21.023 25.008v.955l-.498.498v.758h-.479v-.956l.498-.498v-.56l-1.096-1.095v-1.673h.479v1.475l1.096 1.096zm-1.853-.3v1.986l-.439.478v1.6h-.478v-1.786l.438-.478v-1.601l-1.315-1.315v-2.43h.478v2.232l1.316 1.315zm-1.356.3v2.61h-.478v-2.412l-1.095-1.096v-2.271h.478v2.073l1.095 1.096zm-1.474.757v2.749h-.478v-2.551l-1.056-1.056v-1.514l.498-.498V21.9h.478v1.194l-.498.499v1.117l1.056 1.056zm-1.335 0v1.454h-.478v-1.256l-1.056-1.056v-2.949h.478v2.75l1.056 1.057zm-1.215.976v2.072h-.478v-1.874l-.339-.338h-.597l-1.137-1.136V24.41l.757-.757v-1.216h.479v1.414l-.758.757v.659l.857.856h.597l.619.618z" clip-rule="evenodd" opacity=".4"/>
        <path fill="#8984B1" fill-rule="evenodd" d="M20.844 25.081v.807l-.499.498v.912h-.12v-.962l.5-.498v-.707l-1.097-1.096v-1.6h.12v1.55l1.096 1.096zm-1.854-.299v1.841l-.438.479v1.75h-.12v-1.797l.439-.478v-1.745l-1.315-1.315V21.16h.12v2.306l1.315 1.315zm-1.354.3v2.614h-.12v-2.565l-1.096-1.096v-2.077h.12v2.027l1.096 1.096zm-1.475.756v2.755h-.12v-2.705l-1.055-1.056v-1.365l.498-.498v-1.908h.12v1.958l-.499.498v1.265l1.056 1.056zm-1.335 0v1.42h-.12v-1.37l-1.055-1.056v-2.874h.12v2.824l1.055 1.056zm-1.215.977v2.037h-.12v-1.988l-.443-.443h-.598L11.42 25.39v-.907l.757-.757v-1.29h.12v1.34l-.757.757v.807l.96.961h.598l.514.514z" clip-rule="evenodd" opacity=".4"/>
        <path fill="#12121B" d="M4.425 8.827a.658.658 0 1 0 1.315 0 .658.658 0 0 0-1.315 0z" opacity=".4"/>
        <path fill="#8984B1" fill-rule="evenodd" d="M5.083 9.207a.379.379 0 1 1 0-.758.379.379 0 0 1 0 .758zm0 .12a.498.498 0 1 1 0-.997.498.498 0 0 1 0 .996z" clip-rule="evenodd" opacity=".4"/>
        <path fill="#12121B" d="M4.425 14.287a.658.658 0 1 0 1.315 0 .658.658 0 0 0-1.315 0z" opacity=".4"/>
        <path fill="#8984B1" fill-rule="evenodd" d="M5.083 14.666a.379.379 0 1 1 0-.757.379.379 0 0 1 0 .757zm0 .12a.498.498 0 1 1 0-.997.498.498 0 0 1 0 .996z" clip-rule="evenodd" opacity=".4"/>
        <path fill="#12121B" d="M2.831 15.523a.658.658 0 1 0 1.315 0 .658.658 0 0 0-1.315 0z" opacity=".4"/>
        <path fill="#8984B1" fill-rule="evenodd" d="M3.489 15.902a.379.379 0 1 1 0-.757.379.379 0 0 1 0 .757zm0 .12a.498.498 0 1 1 0-.997.498.498 0 0 1 0 .996z" clip-rule="evenodd" opacity=".4"/>
        <path fill="#12121B" d="M3.348 18.232a.658.658 0 1 0 1.315 0 .658.658 0 0 0-1.315 0z" opacity=".4"/>
        <path fill="#8984B1" fill-rule="evenodd" d="M4.006 18.61a.379.379 0 1 1 0-.756.379.379 0 0 1 0 .757zm0 .12a.498.498 0 1 1 0-.996.498.498 0 0 1 0 .996z" clip-rule="evenodd" opacity=".4"/>
        <path fill="#12121B" d="M2.831 10.581a.658.658 0 1 0 1.315 0 .658.658 0 0 0-1.315 0z" opacity=".4"/>
        <path fill="#8984B1" fill-rule="evenodd" d="M3.489 10.96a.379.379 0 1 1 0-.757.379.379 0 0 1 0 .757zm0 .12a.498.498 0 1 1 0-.997.498.498 0 0 1 0 .996z" clip-rule="evenodd" opacity=".4"/>
        <path fill="#12121B" d="M4.027 11.537a.658.658 0 1 0 1.315 0 .658.658 0 0 0-1.315 0z" opacity=".4"/>
        <path fill="#8984B1" fill-rule="evenodd" d="M4.685 11.917a.379.379 0 1 1 0-.758.379.379 0 0 1 0 .758zm0 .12a.498.498 0 1 1 0-.997.498.498 0 0 1 0 .996z" clip-rule="evenodd" opacity=".4"/>
        <path fill="#12121B" d="M3.11 12.972a.658.658 0 1 0 1.314 0 .658.658 0 0 0-1.315 0z" opacity=".4"/>
        <path fill="#8984B1" fill-rule="evenodd" d="M3.767 13.351a.379.379 0 1 1 0-.757.379.379 0 0 1 0 .757zm0 .12a.498.498 0 1 1 0-.997.498.498 0 0 1 0 .997z" clip-rule="evenodd" opacity=".4"/>
        <path fill="#12121B" fill-rule="evenodd" d="M7.811 8.05h-.955l-.498.499H5.6v.478h.956l.498-.498h.56l1.095 1.096h1.673v-.479H8.907L7.811 8.051zm.3 1.854H6.124l-.478.438h-1.6v.478h1.786l.478-.438h1.601l1.315 1.315h2.43v-.478H9.426L8.11 9.904zm-.3 1.354h-2.61v.479h2.412l1.096 1.096h4.324v-.479H8.907L7.811 11.26zm-.757 1.475H4.305v.478h2.551l1.056 1.056h1.513l.499-.498h3.109v-.478H9.725l-.498.498H8.11l-1.056-1.056zm0 1.335H5.6v.478h1.256l1.056 1.056h3.746v-.478H8.11l-1.056-1.056zm-.976 1.216H4.006v.478H5.88l.338.338v.598l1.136 1.136H8.41l.757-.757h1.216v-.479H8.968l-.757.758h-.659l-.856-.857v-.597l-.618-.618z" clip-rule="evenodd" opacity=".4"/>
        <path fill="#8984B1" fill-rule="evenodd" d="M7.737 8.23H6.93l-.498.497H5.52v.12h.962l.498-.498h.707l1.096 1.096h1.6v-.12h-1.55L7.737 8.23zm.299 1.852H6.195l-.479.439h-1.75v.12h1.797l.478-.44h1.745l1.315 1.316h2.357v-.12H9.35l-1.315-1.315zm-.299 1.355H5.122v.12h2.566l1.095 1.096h4.25v-.12h-4.2l-1.096-1.096zm-.757 1.475H4.225v.12H6.93l1.056 1.055h1.365l.498-.498h3.183v-.12H9.8l-.499.499H8.036L6.98 12.912zm0 1.335H5.56v.12h1.37l1.056 1.055h3.672v-.12H8.036L6.98 14.248zm-.976 1.215H3.966v.12h1.988l.443.443v.598l1.031 1.03h.907l.757-.756h1.29v-.12h-1.34l-.757.757h-.807l-.961-.96v-.599l-.513-.513z" clip-rule="evenodd" opacity=".4"/>
        <path fill="#12121B" d="M6.458 25.665a.658.658 0 1 1 1.315 0 .658.658 0 0 1-1.315 0z" opacity=".4"/>
        <path fill="#8984B1" fill-rule="evenodd" d="M7.115 25.286a.379.379 0 1 0 0 .757.379.379 0 0 0 0-.757zm0-.12a.498.498 0 1 0 0 .997.498.498 0 0 0 0-.997z" clip-rule="evenodd" opacity=".4"/>
        <path fill="#12121B" d="M6.458 20.524a.658.658 0 1 1 1.315 0 .658.658 0 0 1-1.315 0z" opacity=".4"/>
        <path fill="#8984B1" fill-rule="evenodd" d="M7.115 20.145a.379.379 0 1 0 0 .758.379.379 0 0 0 0-.758zm0-.12a.498.498 0 1 0 0 .997.498.498 0 0 0 0-.996z" clip-rule="evenodd" opacity=".4"/>
        <path fill="#12121B" d="M4.864 19.289a.658.658 0 1 1 1.315 0 .658.658 0 0 1-1.315 0z" opacity=".4"/>
        <path fill="#8984B1" fill-rule="evenodd" d="M5.522 18.91a.378.378 0 1 0 0 .757.378.378 0 0 0 0-.757zm0-.12a.498.498 0 1 0 0 .997.498.498 0 0 0 0-.996z" clip-rule="evenodd" opacity=".4"/>
        <path fill="#12121B" d="M4.864 24.23a.657.657 0 1 1 1.315 0 .657.657 0 0 1-1.315 0z" opacity=".4"/>
        <path fill="#8984B1" fill-rule="evenodd" d="M5.522 23.852a.379.379 0 1 0 0 .757.379.379 0 0 0 0-.757zm0-.12a.498.498 0 1 0 0 .996.498.498 0 0 0 0-.996z" clip-rule="evenodd" opacity=".4"/>
        <path fill="#12121B" d="M6.06 23.274a.658.658 0 1 1 1.315 0 .658.658 0 0 1-1.315 0z" opacity=".4"/>
        <path fill="#8984B1" fill-rule="evenodd" d="M6.716 22.895a.379.379 0 1 0 0 .758.379.379 0 0 0 0-.758zm0-.12a.498.498 0 1 0 0 .997.498.498 0 0 0 0-.996z" clip-rule="evenodd" opacity=".4"/>
        <path fill="#12121B" d="M5.142 21.838a.658.658 0 1 1 1.315 0 .658.658 0 0 1-1.315 0z" opacity=".4"/>
        <path fill="#8984B1" fill-rule="evenodd" d="M5.8 21.461a.379.379 0 1 0 0 .757.379.379 0 0 0 0-.757zm0-.12a.498.498 0 1 0 0 .997.498.498 0 0 0 0-.996z" clip-rule="evenodd" opacity=".4"/>
        <path fill="#12121B" fill-rule="evenodd" d="M23.983 13.849h1.45l1.395 1.394h1.02l.622-.621.366.366-.773.774h-1.45l-1.395-1.395h-1.02l-.92.92-.367-.366 1.072-1.072zM6.23 17.376h3.375v.518h-3.16l-.618.617H4.504v-.518h1.108l.618-.617z" clip-rule="evenodd" opacity=".4"/>
        <path fill="#8984B1" fill-rule="evenodd" d="M24.066 14.048h1.285l1.394 1.395h1.186l.68-.68.085.084-.715.715h-1.285L25.3 14.167h-1.186l-.978.979-.085-.085 1.014-1.013zM6.312 17.575h3.492v.12H6.362l-.618.617h-1.24v-.12h1.19l.618-.617z" clip-rule="evenodd" opacity=".4"/>
        <path fill="#12121B" fill-rule="evenodd" d="M9.844 26.362H8.89l-.498-.498h-.758v-.478h.956l.498.498h.56l1.095-1.096h1.673v.478H10.94l-1.096 1.096zm.3-1.454H8.157l-.478-.439H6.079v-.478h1.787l.478.439h1.601l1.315-1.316h2.43v.479h-2.232l-1.315 1.315zm-.3-1.355h-2.61v-.479h2.412l1.096-1.095h3.526v.478H10.94l-1.096 1.096zm-.757-1.475h-2.75V21.6H8.89l1.056-1.056h1.513l.498.498h2.312v.478h-2.51l-.498-.498h-1.117l-1.056 1.056zm0-1.335H7.633v-.478H8.89l1.056-1.056h3.745v.478h-3.547l-1.056 1.056zm-.976-1.215H6.039v-.478h1.874l.338-.338v-.598l1.136-1.137h1.055l.757.758h1.216v.478h-1.414l-.757-.758h-.659l-.856.857v.598l-.618.618z" clip-rule="evenodd" opacity=".4"/>
        <path fill="#8984B1" fill-rule="evenodd" d="M9.77 26.182h-.807l-.499-.498h-.911v-.12h.96l.5.498h.707l1.096-1.095h1.598v.12h-1.549L9.77 26.181zm.298-1.454H8.227l-.478-.439h-1.75v-.12h1.796l.478.439h1.746l1.315-1.315h2.356v.12h-2.307l-1.315 1.314zm-.299-1.355H7.154v-.12H9.72l1.096-1.096h3.85v.12h-3.8l-1.097 1.096zm-.757-1.475H6.258v-.12h2.705l1.056-1.055h1.364l.498.498h2.785v.12h-2.834l-.498-.499h-1.266l-1.056 1.056zm0-1.335h-1.42v-.12h1.37l1.057-1.055h3.67v.12h-3.62l-1.057 1.055zm-.976-1.215H5.999v-.12h1.987l.443-.443v-.598l1.032-1.031h.906l.757.757h1.29v.12h-1.34l-.756-.758H9.51l-.961.962v.597l-.513.514z" clip-rule="evenodd" opacity=".4"/>
    </g>
    <path fill="#2F3045" d="M0 6a6 6 0 0 1 6-6h20a6 6 0 0 1 6 6v20a6 6 0 0 1-6 6H6a6 6 0 0 1-6-6V6z"/>
    <path fill="#03E1E4" fill-rule="evenodd" d="M26 2H6a4 4 0 0 0-4 4v20a4 4 0 0 0 4 4h20a4 4 0 0 0 4-4V6a4 4 0 0 0-4-4zM6 0a6 6 0 0 0-6 6v20a6 6 0 0 0 6 6h20a6 6 0 0 0 6-6V6a6 6 0 0 0-6-6H6z" clip-rule="evenodd"/>
    <path fill="#12121B" fill-rule="evenodd" d="M9.592 17.683v-2.784h2.32v-2.867h-2.32v-1.376h2.32V6.414h8.75v1.458h1.193v1.193h1.193v5.966h-1.193v1.193h-1.193v1.459h-1.326v1.59h1.326v1.591h1.326v1.591h1.326v2.784h-3.315v-2.784h-1.193v-1.59H17.48v-1.591h-1.325v-1.591h-1.459v7.556h-2.784v-7.556h-2.32zm0 0h-2.34v-2.784h2.34v-2.867h-2.34V9.198h2.32v-2.77h9.663v.516h1.193v1.193h1.194v7.822h-1.194v1.193h-1.193v2.784h1.326v1.591h1.326v3.745h-3.758V23.76h-1.26v-1.304h-1.28V20.98h-.893l-.014 4.292h-5.11l.02-7.59zm7.61-7.027V9.184h-2.52v5.729h2.52v-1.459h1.881v-2.812l-1.882.014zm-2.506-1.458v5.7h4.375V13.44h1.458v-2.784h-1.458V9.198h-4.375z" clip-rule="evenodd"/>
    <path fill="#12121B" fill-rule="evenodd" d="M12.19 15.177H9.87v2.226h2.32v7.557h2.214l.012-3.98v-3.577h2.017v1.591h1.326v1.591h1.325v1.591h1.193v2.784h1.33v-3.154H20.28v-1.59h-1.326v-3.343h1.194V15.68h1.193V8.416h-1.193V7.223h-1.194v-.516H12.19v4.228H9.87v.818h2.32v3.424zm-2.599-3.145v-1.376h2.32V6.428h7.323v.516h1.194v1.193h1.193v7.822h-1.193v1.193h-1.194v2.784h1.326v1.59h1.326v3.713h-1.888v-2.784h-1.193v-1.59H17.48v-1.592h-1.326v-1.59h-1.459v3.297l-.013 4.259h-2.77v-7.557h-2.32v-2.784h2.32v-2.866h-2.32zm0 2.866v-2.866h-2.34V9.198h2.32v-2.77h2.34v-.014h8.75v1.458h1.193v1.193h1.194v5.966h-1.194v1.193h-1.193v1.458h-1.326v1.591h1.326v1.591h1.326v1.59h1.326v2.785h-1.427v.033h-3.758V23.76h-1.26v-1.304h-1.28V20.98h-.893v4.259h-.013v.033H9.57l.02-7.59h-2.34v-2.784h2.34zm-.278-.279v-2.308H6.972V8.919h2.32v-2.77h2.34v-.014h9.308v1.458h1.193v1.193h1.194v6.524h-1.194v1.193H20.94v1.458h-1.326v1.033h1.326v1.591h1.326v1.591h1.326v3.342h-1.427v.033h-4.316v-1.513h-1.26v-1.304h-1.28v-1.475h-.334v4.259h-.015v.033H9.29l.022-7.59h-2.34V14.62h2.34zm7.609-3.682v-1.46h-1.947v5.142h1.947v-1.444h1.87v-.014h.012v-2.226h-.013v-.012l-1.87.014zm2.148-.295v.014h.013v2.784h-.013v.014H17.2v1.444h-2.505v-5.7H17.2v1.458l1.87-.014zm0 0h.013v.014h1.446v2.784h-1.446v.014h-.013v1.444H17.2v.014h-2.518V9.184H17.2v.014h1.87v1.444zm-1.59 4.535v.014h-3.077V8.905h3.076v.014h1.87v1.442h.012v.016h1.447v3.342H19.36v.014h-.012v1.444h-1.87z" clip-rule="evenodd"/>
    <path fill="#03E1E4" fill-rule="evenodd" d="M11.914 6.414h8.75v1.458h1.192v1.193h1.194v5.966h-1.194v1.193h-1.193v1.459h-1.325v1.59h1.325v1.591h1.326v1.591h1.326v2.784H20v-2.784h-1.193v-1.59h-1.325v-1.592h-1.326v-1.59h-1.458v7.556h-2.784V6.414zm7.158 2.784h-4.374v5.7h4.374V13.44h1.459v-2.784h-1.459V9.198z" clip-rule="evenodd"/>
    <path fill="#03E1E4" d="M11.914 12.027v-2.83h-2.32v2.83h2.32zM11.914 14.898h-2.32v2.784h2.32v-2.784z"/>
</svg>
