<svg width="24" height="24" viewBox="0 0 24 24" fill="none" xmlns="http://www.w3.org/2000/svg">
<rect width="24" height="24" rx="3" fill="black"/>
<path d="M17.9372 15.4613L15.9562 17.8363C15.9133 17.8878 15.8614 17.929 15.8037 17.9572C15.746 17.9854 15.6838 17.9999 15.6208 18H6.23016C6.18538 18 6.14157 17.9854 6.1041 17.9579C6.06664 17.9305 6.03714 17.8914 6.01922 17.8455C6.00131 17.7996 5.99575 17.7489 6.00324 17.6995C6.01072 17.6501 6.03092 17.6042 6.06136 17.5675L8.0401 15.1925C8.08295 15.1409 8.13483 15.0998 8.19254 15.0716C8.25024 15.0434 8.31252 15.0288 8.37548 15.0288H17.7661C17.8113 15.0277 17.8558 15.0416 17.8939 15.0688C17.932 15.0959 17.9622 15.1351 17.9804 15.1813C17.9988 15.2276 18.0043 15.2788 17.9966 15.3286C17.9889 15.3784 17.9682 15.4246 17.9372 15.4613ZM15.9562 10.6775C15.9132 10.6262 15.8612 10.5852 15.8036 10.557C15.7459 10.5289 15.6837 10.5142 15.6208 10.5138H6.23016C6.18538 10.5138 6.14157 10.5284 6.1041 10.5559C6.06664 10.5833 6.03714 10.6224 6.01922 10.6683C6.00131 10.7142 5.99575 10.7649 6.00324 10.8143C6.01072 10.8637 6.03092 10.9096 6.06136 10.9463L8.0401 13.3225C8.0831 13.3739 8.13503 13.4149 8.1927 13.443C8.25036 13.4712 8.31256 13.4859 8.37548 13.4863H17.7661C17.8108 13.486 17.8544 13.4712 17.8918 13.4437C17.9291 13.4161 17.9584 13.3771 17.9762 13.3312C17.9939 13.2854 17.9994 13.2347 17.9918 13.1854C17.9843 13.1362 17.9642 13.0904 17.9338 13.0538L15.9562 10.6775ZM6.23016 8.97129H15.6208C15.6838 8.97122 15.746 8.95664 15.8037 8.92846C15.8614 8.9003 15.9133 8.85912 15.9562 8.80754L17.9372 6.43255C17.9682 6.39587 17.9889 6.34972 17.9966 6.29991C18.0043 6.2501 17.9988 6.19885 17.9804 6.15262C17.9622 6.10638 17.932 6.06723 17.8939 6.04009C17.8558 6.01294 17.8113 5.99901 17.7661 6.00005H8.37548C8.31252 6.00013 8.25024 6.01471 8.19254 6.04288C8.13483 6.07105 8.08295 6.11222 8.0401 6.1638L6.06136 8.53879C6.03092 8.57553 6.01072 8.6214 6.00324 8.67078C5.99575 8.72015 6.00131 8.77089 6.01922 8.81679C6.03714 8.86269 6.06664 8.90175 6.1041 8.92919C6.14157 8.95664 6.18538 8.97126 6.23016 8.97129Z" fill="url(#paint0_linear_15064_33783)"/>
<defs>
<linearGradient id="paint0_linear_15064_33783" x1="7.01272" y1="18.2863" x2="18.1015" y2="7.10567" gradientUnits="userSpaceOnUse">
<stop offset="0.08" stop-color="#9945FF"/>
<stop offset="0.3" stop-color="#8752F3"/>
<stop offset="0.5" stop-color="#5497D5"/>
<stop offset="0.6" stop-color="#43B4CA"/>
<stop offset="0.72" stop-color="#28E0B9"/>
<stop offset="0.97" stop-color="#19FB9B"/>
</linearGradient>
</defs>
</svg>
